<?xml version="1.0" encoding="UTF-8" standalone="no"?>
<!-- Created with Inkscape (http://www.inkscape.org/) -->
<svg xmlns:svg="http://www.w3.org/2000/svg" xmlns="http://www.w3.org/2000/svg" xmlns:inkscape="http://www.inkscape.org/namespaces/inkscape" xmlns:dc="http://purl.org/dc/elements/1.1/" xmlns:cc="http://web.resource.org/cc/" xmlns:rdf="http://www.w3.org/1999/02/22-rdf-syntax-ns#" version="1.0" width="343.35663" height="285.56705" viewBox="0 0 342.289 284.248" id="Layer_1" xml:space="preserve"><defs id="defs61">

<metadata>
<rdf:RDF xmlns="http://web.resource.org/cc/" xmlns:dc="http://purl.org/dc/elements/1.1/" xmlns:rdf="http://www.w3.org/1999/02/22-rdf-syntax-ns#">
      <Work rdf:about="">
         <dc:title>Parchment Background</dc:title>
         <dc:description>Parchment Background</dc:description>
         <dc:subject>
          <rdf:Bag>
            <rdf:li>border</rdf:li>
            <rdf:li>background</rdf:li>
		<rdf:li>parchment</rdf:li>
          </rdf:Bag>
         </dc:subject>
         <dc:publisher><Agent rdf:about="http://www.openclipart.org/"><dc:title>Open Clip Art Project</dc:title></Agent></dc:publisher>
         <dc:creator><Agent rdf:about=""><dc:title>Gerald G.</dc:title></Agent></dc:creator>
         <dc:rights><Agent rdf:about="http://web.resource.org/cc/PublicDomain"><dc:title>Public Domain</dc:title></Agent></dc:rights>
         <dc:date>2006/09/25</dc:date>
         <dc:format>image/svg+xml</dc:format>
         <dc:type>http://purl.org/dc/dcmitype/StillImage</dc:type>
         <license rdf:resource="http://web.resource.org/cc/PublicDomain"/>
      </Work>
      <License rdf:about="http://web.resource.org/cc/PublicDomain">
         <permits rdf:resource="http://web.resource.org/cc/Reproduction"/>
         <permits rdf:resource="http://web.resource.org/cc/Distribution"/>
         <permits rdf:resource="http://web.resource.org/cc/DerivativeWorks"/>
      </License>
   </rdf:RDF>
</metadata>

	
	<linearGradient x1="25.021" y1="141.7847" x2="-0.0407" y2="142.4409" id="XMLID_4_" gradientUnits="userSpaceOnUse" gradientTransform="translate(4.4490745e-2,-1.525879e-3)">
		<stop style="stop-color:#8d5c34;stop-opacity:1" offset="0.1286" id="stop18"/>
		<stop style="stop-color:#e8d0a9;stop-opacity:1" offset="0.29049999" id="stop20"/>
		<stop style="stop-color:#e3cba4;stop-opacity:1" offset="0.5952" id="stop22"/>
		<stop style="stop-color:#8d5c34;stop-opacity:1" offset="1" id="stop24"/>
	</linearGradient>
	
	
	<linearGradient x1="22.2656" y1="145.43851" x2="320.6687" y2="135.01801" id="XMLID_5_" gradientUnits="userSpaceOnUse" gradientTransform="translate(4.4490745e-2,-1.525879e-3)">
		<stop style="stop-color:#8d5c34;stop-opacity:1" offset="0" id="stop31"/>
		<stop style="stop-color:#d1b38b;stop-opacity:1" offset="0.0333" id="stop33"/>
		<stop style="stop-color:#e3cba4;stop-opacity:1" offset="0.91430002" id="stop35"/>
		<stop style="stop-color:#8d5c34;stop-opacity:1" offset="1" id="stop37"/>
	</linearGradient>
	
	<linearGradient x1="343.0127" y1="143.6821" x2="316.1524" y2="143.9165" id="XMLID_6_" gradientUnits="userSpaceOnUse" gradientTransform="translate(4.4490745e-2,-1.525879e-3)">
		<stop style="stop-color:#8d5c34;stop-opacity:1" offset="0.0048" id="stop42"/>
		<stop style="stop-color:#93633b;stop-opacity:1" offset="0.1429" id="stop44"/>
		<stop style="stop-color:#e8d0a9;stop-opacity:1" offset="0.29519999" id="stop46"/>
		<stop style="stop-color:#e3cba4;stop-opacity:1" offset="0.63810003" id="stop48"/>
		<stop style="stop-color:#93633a;stop-opacity:1" offset="0.93330002" id="stop50"/>
		<stop style="stop-color:#8d5c34;stop-opacity:1" offset="1" id="stop52"/>
	</linearGradient>
	
	
	

		
			
		
	
			
		<filter id="filter3194"><feGaussianBlur id="feGaussianBlur3196" stdDeviation="1.5658873" inkscape:collect="always"/></filter></defs>



<path d="M 12.589621,284.90557 C 14.857621,285.30157 17.269621,285.30157 20.221621,284.90557 C 23.101621,284.50957 26.233621,283.86157 29.761621,282.67357 L 29.761621,282.67357 L 30.085621,278.85857 L 30.085621,278.85857 C 33.505621,278.60657 36.601621,278.49857 39.949621,278.53457 C 43.153618,278.71457 45.961618,279.25457 49.489618,279.18157 C 52.909618,279.00157 57.697618,278.35457 60.937618,277.92157 C 64.213618,277.66957 66.769618,277.56257 68.893618,277.59757 L 68.893618,277.59757 C 69.145618,277.05757 69.145618,275.83357 68.893618,273.78257 C 68.569618,271.73057 67.165618,267.95057 67.309618,265.50257 C 67.489618,263.19857 68.245618,261.29057 69.865618,259.77857 L 69.865618,259.77857 C 69.145618,261.93857 68.821618,263.73857 68.893618,265.17757 C 68.929618,266.69057 69.685618,266.65457 70.189618,268.66957 C 70.657618,270.79357 70.945618,273.67357 71.449618,277.59757 L 71.449618,277.59757 C 74.545618,277.66957 78.001618,277.88557 81.961618,278.24557 C 85.849618,278.74957 89.269618,279.97357 94.993618,279.82957 C 100.60962,279.64957 110.32962,277.77757 115.98162,277.27357 C 121.66962,276.91357 125.73762,277.02157 128.72562,277.59657 L 128.72562,277.59657 C 132.14562,278.56957 136.24962,279.00057 141.43362,279.18057 C 146.65362,279.43257 153.88962,278.89357 159.25362,278.53357 C 164.32962,278.13757 166.45362,277.81357 172.28562,277.27357 C 178.08162,276.91357 188.09062,276.40957 194.24562,276.33657 C 200.36562,276.44457 204.14562,277.74057 208.89762,277.59657 C 213.61362,277.52557 217.93362,276.84057 222.25362,275.68957 L 222.25362,275.68957 C 222.54162,274.78957 222.86462,273.85357 223.51362,272.48557 C 224.08962,271.36957 225.34962,270.36157 225.74462,268.05657 C 226.03262,265.75257 225.13362,260.20857 225.42162,258.51657 C 225.67362,256.93257 226.06862,256.82557 227.00562,258.19357 L 227.00562,258.19357 C 226.42962,261.07357 226.53662,263.52157 227.32862,265.82557 C 228.08562,268.12957 230.38962,270.14557 231.46962,271.87357 C 232.36862,273.74557 231.14562,275.18657 233.05362,276.33757 C 234.92562,277.48957 236.90562,277.99357 242.59362,278.24557 C 248.13762,278.53357 259.98162,277.84957 266.46162,277.59757 C 272.79762,277.45357 274.99262,277.41757 280.68162,276.95057 C 286.26162,276.55457 293.89362,275.22157 300.12062,275.04257 C 306.24062,274.97057 312.07262,275.40257 317.61662,276.33857 L 317.61662,276.33857 L 317.29362,282.06357 L 317.29362,282.06357 C 320.28062,284.58357 323.52162,285.69957 327.15662,285.55457 C 330.72062,285.37457 334.64462,283.93457 338.92862,281.09057 L 338.92862,281.09057 L 343.35662,6.5555785 L 343.35662,6.5555785 C 343.14062,6.3735785 342.02462,6.0495785 339.86462,5.5825785 C 337.63362,5.1135785 334.50162,4.7175785 330.32462,3.9985785 L 330.32462,3.9985785 L 328.41662,1.4415785 L 328.41662,1.4415785 C 325.24862,1.3695785 322.83762,1.5865785 320.78462,2.0895785 C 318.73262,2.7005785 317.29362,3.4215785 316.32062,4.6465785 L 316.32062,4.6465785 L 316.64462,12.890578 L 316.64462,12.890578 C 300.58862,12.601578 288.31262,12.277578 279.42062,11.628578 C 270.49162,11.054578 269.26862,9.4705785 263.50862,9.3985785 C 257.56862,9.5055785 249.97262,11.269578 244.75262,11.628578 C 239.56762,12.024578 236.97662,11.558578 232.65562,11.628578 C 228.19162,11.845578 223.51162,12.062578 218.32762,12.566578 L 218.32762,12.566578 C 218.25662,14.978578 218.18362,16.994578 217.71662,18.613578 C 217.21262,20.342578 216.70862,21.529578 215.80862,22.465578 L 215.80862,22.465578 C 216.42062,20.377578 216.52862,18.361578 216.13262,16.418578 C 215.62862,14.510578 214.80062,12.746578 213.25262,10.982578 L 213.25262,10.982578 C 207.27562,10.261578 201.55262,9.9375785 196.07962,9.7225785 C 190.42862,9.5775785 185.35162,9.6855785 180.16862,10.044578 L 180.16862,10.044578 C 180.77962,11.880578 180.99562,13.573578 180.81562,15.120578 C 180.49162,16.741578 179.30362,17.532578 178.90762,19.585578 C 178.51162,21.780578 178.40362,24.409578 178.58462,27.864578 L 178.58462,27.864578 C 178.54862,27.145578 178.43962,26.280578 178.26062,24.985578 C 177.97262,23.725578 177.46862,22.141578 177.28762,20.520578 C 177.07162,19.081578 177.57562,17.317578 177.00062,15.768578 C 176.35262,14.184578 176.10062,12.600578 173.47262,11.305578 C 170.66362,10.080578 165.40862,9.4695785 160.76462,9.0735785 C 155.94062,8.8215785 148.63262,9.0015785 145.50062,10.044578 C 142.36862,11.269578 143.98862,16.058578 142.29662,16.093578 C 140.53262,16.165578 138.37262,11.341578 134.98862,10.368578 C 131.38862,9.4705785 126.13262,10.729578 121.30862,10.692578 C 116.48462,10.764578 111.55262,10.764578 106.36862,10.692578 L 106.36862,10.692578 C 105.39662,12.024578 104.64062,13.501578 103.81262,15.120578 C 102.98462,16.849578 102.51662,20.593578 101.58062,20.520578 C 100.39262,20.485578 98.052618,16.127578 97.764618,14.795578 C 97.584618,13.645578 100.75262,13.932578 100.32062,12.889578 C 99.744618,11.879578 98.952618,9.1085785 94.596618,8.4595785 C 90.096618,7.9205785 83.328618,8.3895785 73.896618,9.7215785 L 73.896618,9.7215785 C 73.032618,14.184578 71.916618,16.416578 70.404618,16.416578 C 68.784618,16.379578 67.200618,11.053578 64.680618,9.7215785 C 62.124618,8.4965785 62.556618,9.4325785 55.140618,9.0735785 C 47.473618,8.7835785 35.845621,8.5695785 19.572621,8.1375785 L 19.572621,8.1375785 C 18.924621,6.1925785 17.304621,5.0765785 14.172621,4.6455785 C 11.112621,4.2845785 6.7206204,4.7525785 1.1406204,5.9055785 L 1.1406204,5.9055785 L 4.3096204,277.59657 L 4.3096204,277.59657 C 5.9296204,278.64057 7.5496204,279.25257 8.7736204,279.82857 C 9.9616204,280.44057 11.149621,280.62057 11.941621,280.76457 L 11.941621,280.76457 C 12.156621,282.13257 12.373621,283.50057 12.589621,284.90557 L 12.589621,284.90557 z M 5.5696204,276.94857 C 8.8096204,276.33657 11.869621,276.08457 15.145621,276.33657 C 18.313621,276.66057 22.417621,277.66857 24.685621,278.53257 C 26.917621,279.50457 28.141621,280.47657 28.501621,281.73657 L 28.501621,281.73657 C 28.285621,273.60057 27.853621,258.80357 26.917621,236.23257 C 25.837621,213.58757 24.649621,185.90457 23.065621,147.49257 C 21.553621,109.15257 19.861621,63.396578 17.989621,8.1375785 L 17.989621,8.1375785 C 15.901621,6.9855785 13.705621,6.3015785 11.005621,6.2295785 C 8.2696204,6.1925785 5.4256204,6.7685785 2.0776204,7.8135785 L 2.0776204,7.8135785 C 3.2296204,97.524574 4.3816204,187.23757 5.5696204,276.94857 L 5.5696204,276.94857 z M 19.572621,9.3975785 C 34.260621,10.081578 44.952618,10.512578 52.188618,10.692578 C 59.244618,10.872578 59.496618,9.5775785 62.376618,10.692578 C 65.220618,11.917578 67.452618,16.993578 69.360618,18.001578 C 71.160618,19.226578 72.312618,18.685578 73.500618,17.353578 C 74.652618,16.128578 75.408618,13.753578 76.056618,10.369578 L 76.056618,10.369578 C 80.556618,9.9745785 84.480618,9.7585785 87.828618,9.7235785 C 91.284618,9.6865785 94.416618,9.9035785 96.108618,10.369578 C 97.476618,11.055578 97.188618,12.457578 97.044618,13.213578 C 96.828618,14.041578 95.280618,14.078578 95.460618,15.121578 C 95.640618,16.418578 97.188618,18.613578 98.304618,19.910578 C 99.384618,21.205578 100.93262,22.933578 102.12062,22.465578 C 103.12862,22.070578 103.84862,19.117578 104.67662,17.354578 C 105.50462,15.625578 106.15262,13.827578 106.90862,11.954578 L 106.90862,11.954578 C 112.95662,12.206578 118.10462,12.315578 122.49662,12.278578 C 126.85262,12.243578 130.30862,11.487578 133.00862,11.954578 C 135.52862,12.602578 136.86062,14.618578 138.40862,15.770578 C 139.92062,16.995578 141.43262,18.831578 142.54862,18.938578 C 143.59262,19.083578 144.38462,17.643578 145.06862,16.418578 C 145.64462,15.266578 143.95262,13.033578 146.36462,11.953578 C 148.74062,10.945578 155.25662,10.658578 159.39662,10.693578 C 163.50062,10.910578 168.18162,11.918578 170.91662,12.890578 C 173.58062,13.898578 174.37362,14.474578 175.38162,16.704578 C 176.20962,19.081578 175.56162,24.372578 176.35362,26.893578 C 177.10962,29.485578 178.22562,31.141578 179.84562,32.004578 L 179.84562,32.004578 C 179.26962,28.656578 179.16062,25.920578 179.52162,23.400578 C 179.80962,21.023578 181.10562,19.332578 181.75362,17.351578 C 182.36462,15.408578 182.68962,13.499578 183.01362,11.626578 L 183.01362,11.626578 C 183.58962,11.591578 186.28862,11.591578 190.96962,11.626578 C 195.68562,11.698578 202.27362,11.808578 211.02162,11.950578 L 211.02162,11.950578 C 212.42562,13.606578 213.43362,15.514578 214.18962,17.675578 C 214.87362,19.907578 215.19762,22.247578 215.16162,24.984578 L 215.16162,24.984578 C 216.42262,23.795578 217.57362,22.355578 218.32962,20.519578 C 219.15762,18.683578 219.59062,16.703578 219.91362,14.183578 L 219.91362,14.183578 C 231.90162,14.255578 241.51462,14.038578 249.18262,13.535578 C 256.77862,13.068578 259.73062,11.305578 265.41762,11.305578 C 270.89062,11.520578 274.02162,13.248578 282.59062,13.860578 C 291.23062,14.436578 302.35462,14.653578 316.64662,14.508578 L 316.64662,14.508578 L 317.90662,274.42857 L 317.90662,274.42857 C 313.19062,273.38457 307.71862,272.95257 301.05862,273.13257 C 294.21862,273.52857 284.31862,275.07657 278.16262,275.68957 C 272.07862,276.26457 271.07062,276.30057 264.87962,276.33657 C 258.50762,276.58857 245.76362,276.73257 240.68762,276.33657 C 235.57562,275.86857 235.82762,274.82457 234.63962,273.78057 C 233.37962,272.95257 234.20662,272.73657 233.37962,270.90057 C 232.37062,269.06457 230.06662,265.71557 229.23862,262.94457 C 228.41062,260.31657 229.31062,256.64457 228.59162,254.98857 C 227.72762,253.51157 225.09962,252.71957 224.45062,253.72857 C 223.65862,254.84357 224.63162,258.73257 224.45062,261.36057 C 224.23462,264.09557 223.91062,267.55157 223.19062,269.63957 C 222.32662,271.79957 221.21162,273.24057 219.69862,274.10457 L 219.69862,274.10457 C 214.94662,275.14857 210.80662,275.54357 207.27862,275.68857 C 203.64262,275.75957 203.82262,274.96757 198.38662,274.71557 C 192.87862,274.57157 182.61762,274.67957 174.84262,275.03957 C 166.92162,275.57957 157.38162,277.30857 151.62162,277.59557 C 145.89762,277.99157 144.96162,277.45157 140.46162,276.94857 C 135.74562,276.37257 129.40962,275.11257 123.93762,274.71657 C 118.24962,274.53657 112.77762,275.18557 107.37762,275.68957 C 101.94162,276.40957 95.929618,278.10157 92.113618,278.24557 C 88.297618,278.31757 87.937618,276.98557 84.805618,276.33757 C 81.673618,275.83357 77.857618,275.40157 73.357618,275.04157 L 73.357618,275.04157 C 71.629618,271.54957 70.765618,268.48957 70.477618,265.17757 C 70.189618,261.97357 70.621618,258.94957 71.773618,255.96157 L 71.773618,255.96157 C 68.821618,259.16557 66.805618,261.61357 65.725618,263.59357 C 64.501618,265.53757 64.789618,265.89857 65.077618,267.73457 C 65.365618,269.75057 66.013618,272.19857 67.309618,275.36657 L 67.309618,275.36657 C 66.373618,275.97857 63.781618,276.26557 59.677618,276.62657 C 55.393618,276.98657 47.401618,277.34657 42.505618,277.27457 C 37.573621,277.31057 33.829621,277.09357 30.733621,276.62657 L 30.733621,276.62657 L 19.572621,9.3975785 L 19.572621,9.3975785 z M 13.849621,283.32157 L 12.589621,279.18057 L 8.1256204,277.92057 L 8.1256204,277.92057 C 11.509621,277.77657 14.641621,277.84857 17.665621,278.53257 C 20.689621,279.25257 23.317621,280.18857 25.945621,281.73657 L 25.945621,281.73657 C 23.209621,282.81657 21.013621,283.35657 18.961621,283.64457 C 16.909621,283.93257 15.253621,283.82457 13.849621,283.32157 L 13.849621,283.32157 z M 341.84562,7.1645785 C 340.04562,8.1005785 337.92162,8.6415785 335.18562,8.7835785 C 332.30562,8.9635785 328.56162,8.7485785 325.60962,8.1375785 C 322.65762,7.5615785 320.24562,6.8405785 317.97762,5.5805785 L 317.97762,5.5805785 C 319.16562,4.5355785 320.67762,3.9965785 322.11762,3.6725785 C 323.52162,3.4205785 325.24962,3.5275785 326.90562,3.9965785 L 326.90562,3.9965785 L 330.07362,6.2285785 L 330.07362,6.2285785 C 333.99762,6.5165785 337.92262,6.8405785 341.84562,7.1645785 L 341.84562,7.1645785 z M 317.97762,8.1375785 C 318.37362,34.272578 318.69762,69.301578 318.94962,115.02057 C 319.13062,160.99357 319.23762,215.17257 319.27362,280.76457 L 319.27362,280.76457 C 320.06562,282.81757 321.82962,283.82557 324.99762,283.64557 C 328.02162,283.46457 332.30662,282.24157 337.70562,279.82957 L 337.70562,279.82957 L 341.84662,9.7225785 L 341.84662,9.7225785 C 337.67062,10.693578 333.96262,11.269578 330.72262,11.306578 C 327.23062,11.341578 324.31462,10.693578 322.11862,10.044578 C 319.95762,9.4695785 318.62562,8.9635785 317.97762,8.1375785 L 317.97762,8.1375785 z " style="fill:#1a1a1a;fill-rule:evenodd;filter:url(#filter3194)" id="path2220"/><g transform="translate(4.4490745e-2,-1.525879e-3)" id="g13">
				<path d="M 11.466,283.574 C 13.734,283.934 16.146,283.934 19.098,283.574 C 21.978,283.142 25.11,282.458 28.638,281.378 L 28.638,281.378 L 28.962,277.563 L 28.962,277.563 C 32.382,277.275 35.478,277.167 38.826,277.239 C 42.03,277.275 44.838,277.851 48.366,277.851 C 51.786,277.634 56.574,276.843 59.814,276.59 C 63.09,276.303 65.646,276.194 67.77,276.267 L 67.77,276.267 C 68.022,275.691 68.022,274.466 67.77,272.451 C 67.446,270.327 66.042,266.547 66.186,264.171 C 66.366,261.795 67.122,259.888 68.742,258.447 L 68.742,258.447 C 68.022,260.499 67.698,262.443 67.77,263.883 C 67.806,265.287 68.562,265.287 69.066,267.375 C 69.534,269.463 69.822,272.379 70.326,276.268 L 70.326,276.268 C 73.422,276.304 76.878,276.52 80.838,276.915 C 84.726,277.311 88.146,278.535 93.87,278.499 C 99.486,278.211 109.206,276.339 114.858,275.943 C 120.546,275.547 124.614,275.655 127.602,276.267 L 127.602,276.267 C 131.022,277.095 135.126,277.67 140.31,277.851 C 145.53,277.958 152.766,277.527 158.13,277.239 C 163.206,276.771 165.33,276.339 171.162,275.943 C 176.958,275.511 186.966,274.971 193.122,275.006 C 199.242,275.042 203.022,276.303 207.774,276.267 C 212.49,276.159 216.81,275.475 221.129,274.359 L 221.129,274.359 C 221.417,273.567 221.741,272.379 222.39,271.191 C 222.965,269.895 224.226,268.959 224.621,266.727 C 224.909,264.351 224.009,258.771 224.297,257.187 C 224.549,255.531 224.945,255.422 225.881,256.863 L 225.881,256.863 C 225.306,259.707 225.413,262.155 226.205,264.495 C 226.961,266.764 229.266,268.779 230.345,270.543 C 231.245,272.344 230.022,273.783 231.929,275.007 C 233.801,276.123 235.782,276.627 241.469,276.915 C 247.013,277.096 258.858,276.411 265.337,276.268 C 271.637,275.98 273.941,276.052 279.593,275.656 C 285.245,275.188 292.734,273.748 298.997,273.712 C 305.117,273.568 310.949,274 316.493,275.008 L 316.493,275.008 L 316.169,280.733 L 316.169,280.733 C 319.157,283.216 322.398,284.333 326.033,284.225 C 329.597,284.008 333.521,282.569 337.805,279.76 L 337.805,279.76 L 342.269,5.224 L 342.269,5.224 C 342.088,5.044 340.865,4.72 338.741,4.252 C 336.509,3.784 333.377,3.388 329.201,2.668 L 329.201,2.668 L 327.293,0.112 L 327.293,0.112 C 324.125,0.04 321.713,0.256 319.661,0.759 C 317.609,1.371 316.169,2.091 315.197,3.316 L 315.197,3.316 L 315.521,11.595 L 315.521,11.595 C 299.464,11.343 287.189,10.911 278.296,10.299 C 269.368,9.723 268.145,8.139 262.384,8.068 C 256.445,8.175 248.849,9.94 243.628,10.299 C 238.444,10.695 235.853,10.228 231.532,10.299 C 227.068,10.48 222.352,10.803 217.24,11.272 L 217.24,11.272 C 217.204,13.683 216.988,15.7 216.592,17.32 C 216.088,18.975 215.584,20.2 214.685,21.135 L 214.685,21.135 C 215.296,19.047 215.405,17.031 215.008,15.087 C 214.504,13.215 213.676,11.415 212.128,9.688 L 212.128,9.688 C 206.152,9.003 200.428,8.572 194.956,8.391 C 189.305,8.247 184.228,8.356 179.044,8.715 L 179.044,8.715 C 179.656,10.551 179.872,12.243 179.692,13.791 C 179.368,15.411 178.18,16.203 177.784,18.255 C 177.388,20.451 177.28,23.079 177.46,26.535 L 177.46,26.535 C 177.424,25.815 177.316,24.951 177.137,23.655 C 176.813,22.467 176.452,20.846 176.2,19.227 C 176.02,17.75 176.38,16.058 175.876,14.439 C 175.192,12.926 175.048,11.163 172.384,9.974 C 169.576,8.895 164.357,8.031 159.64,7.779 C 154.816,7.527 147.508,7.707 144.376,8.715 C 141.316,9.94 142.9,14.728 141.208,14.763 C 139.444,14.835 137.32,10.011 133.864,9.039 C 130.264,8.139 125.008,9.399 120.184,9.363 C 115.36,9.434 110.428,9.434 105.244,9.363 L 105.244,9.363 C 104.272,10.695 103.516,12.171 102.688,13.791 C 101.86,15.447 101.392,19.335 100.456,19.228 C 99.268,19.192 96.928,14.835 96.64,13.503 C 96.46,12.279 99.628,12.747 99.196,11.595 C 98.62,10.515 97.828,7.78 93.472,7.131 C 88.938,6.59 82.278,7.058 72.81,8.39 L 72.81,8.39 C 71.946,12.855 70.866,15.086 69.282,15.086 C 67.662,15.05 66.078,9.722 63.558,8.39 C 61.002,7.239 61.434,8.102 54.018,7.779 C 46.35,7.526 34.722,7.202 18.45,6.806 L 18.45,6.806 C 17.802,4.863 16.182,3.746 13.05,3.315 C 9.99,2.955 5.598,3.422 0.018,4.575 L 0.018,4.575 L 3.186,276.267 L 3.186,276.267 C 4.806,277.275 6.426,277.887 7.65,278.498 C 8.838,279.002 10.026,279.326 10.818,279.471 L 10.818,279.471 C 11.034,280.838 11.25,282.206 11.466,283.574 L 11.466,283.574 z " style="fill-rule:evenodd;stroke:#000000;stroke-width:0.036;stroke-miterlimit:10" id="path15"/>
			</g><path d="M 3.4974907,275.84547 C 3.3894907,240.63747 3.1734907,201.36147 2.7054907,155.92947 C 2.2374907,110.46147 1.5894907,61.103474 0.76149074,5.3404741 L 0.76149074,5.3404741 C 4.1094907,3.9734741 7.1694907,3.3244741 10.085491,3.3974741 C 12.965491,3.5774741 15.449491,4.4774741 17.825491,6.0964741 L 17.825491,6.0964741 L 28.697491,280.48847 L 28.697491,280.48847 C 26.897491,279.62447 24.881491,278.72447 22.109491,277.78847 C 19.301491,276.99647 15.521491,275.34147 12.425491,275.05347 C 9.3294907,274.69247 6.3054907,275.05347 3.4974907,275.84547 L 3.4974907,275.84547 z " style="fill:url(#XMLID_4_);fill-rule:evenodd" id="path26"/><path d="M 12.101491,282.57647 L 10.913491,278.68847 L 5.8374907,276.60047 L 5.8374907,276.60047 C 9.6174907,275.44847 13.109491,275.30447 16.601491,276.02447 C 20.021491,276.88847 23.297491,278.40047 26.429491,281.10047 L 26.429491,281.10047 C 23.657491,282.46847 21.029491,283.26047 18.689491,283.47647 C 16.205491,283.80147 14.153491,283.36847 12.101491,282.57647 L 12.101491,282.57647 z " style="fill:#412318;fill-rule:evenodd" id="path28"/><path d="M 28.841491,276.02447 L 17.465491,6.7094741 L 17.465491,6.7094741 C 24.125491,7.0314741 29.813491,7.4284741 35.105491,7.6074741 C 40.325491,7.9314741 44.249491,8.0414741 48.533491,8.2204741 C 52.709491,8.5074741 57.281491,7.8244741 60.161491,8.5074741 C 62.861491,9.3004741 63.725491,10.812474 65.237491,12.071474 C 66.641491,13.331474 67.613491,15.778474 68.837491,15.960474 C 69.989491,16.282474 71.358491,14.843474 72.401491,13.583474 C 73.337491,12.358474 73.985491,10.667474 74.489491,8.5074741 L 74.489491,8.5074741 C 78.665491,8.0754741 82.121491,7.8234741 85.253491,7.6074741 C 88.241491,7.4274741 90.725491,7.4274741 92.705491,7.6074741 C 94.505491,7.8964741 95.981491,8.5454741 96.593491,9.4084741 C 97.133491,10.523474 96.341491,12.144474 96.305491,13.297474 C 96.233491,14.340474 95.585491,15.276474 96.305491,16.248474 C 96.917491,17.508474 99.185491,19.775474 100.19349,20.137474 C 101.05749,20.496474 101.09349,19.020474 101.66949,18.049474 C 102.10149,17.041474 102.42549,16.031474 103.18149,14.485474 C 103.82949,13.081474 104.76549,11.532474 105.84549,9.6964741 L 105.84549,9.6964741 C 108.97749,9.5164741 112.68549,9.5164741 116.96949,9.4094741 C 121.28949,9.3374741 127.91349,8.8334741 131.29749,9.4094741 C 134.53749,10.165474 134.60949,12.577474 136.37349,13.585474 C 138.02949,14.737474 140.22549,15.853474 141.44949,15.673474 C 142.63749,15.421474 142.45749,13.550474 143.24949,12.398474 C 143.82549,11.462474 143.50149,10.418474 145.33749,9.6974741 C 147.10149,9.0134741 149.98149,8.2954741 153.97749,8.2224741 C 157.86549,8.3294741 165.24649,9.1934741 168.62949,9.9864741 C 171.86949,10.849474 172.40949,11.353474 173.70549,13.299474 C 174.82149,15.387474 175.14549,19.563474 175.79349,21.938474 C 176.40549,24.387474 177.23349,26.186474 177.88149,27.627474 L 177.88149,27.627474 C 177.70149,24.781474 177.84549,22.334474 178.16949,20.139474 C 178.49349,18.086474 179.28549,16.575474 179.96949,14.774474 C 180.61749,12.938474 181.08549,11.282474 181.77049,9.4114741 L 181.77049,9.4114741 C 187.60249,9.0524741 192.93049,8.9424741 197.89849,9.0874741 C 202.83049,9.3044741 207.25749,9.6634741 211.32649,10.312474 L 211.32649,10.312474 C 212.47849,12.363474 213.41449,14.343474 213.99049,16.251474 C 214.60249,18.267474 214.85449,20.067474 214.89049,21.939474 L 214.89049,21.939474 C 216.50949,20.320474 217.66149,18.628474 218.20249,16.863474 C 218.70649,15.099474 218.70649,13.408474 218.20249,11.500474 L 218.20249,11.500474 C 224.50249,11.896474 230.62249,12.039474 236.70649,11.787474 C 242.82649,11.572474 249.66649,10.889474 254.31049,10.312474 C 258.73849,9.8434741 259.92549,8.8354741 263.27449,8.8004741 C 266.47849,8.9434741 270.33049,10.060474 273.71349,10.599474 C 276.91749,11.140474 277.78149,11.535474 283.25349,11.787474 C 288.90549,12.076474 300.74949,12.473474 306.54549,12.400474 C 312.08949,12.435474 315.32949,12.183474 316.40949,11.787474 L 316.40949,11.787474 L 317.30949,273.94047 L 317.30949,273.94047 C 314.53749,272.96847 310.90149,272.46347 306.25649,272.42847 C 301.46849,272.46347 295.70849,273.47247 289.51749,273.94047 C 283.21649,274.55247 275.94549,275.41647 269.24849,275.70447 C 262.48049,275.99247 254.88449,276.10047 249.52049,276.02847 C 244.12049,276.20847 239.79949,276.53247 236.99249,276.02847 C 234.07649,275.59647 233.35649,274.26447 232.20449,272.71547 C 230.94449,271.13147 230.65649,269.00747 229.82849,266.73947 C 228.89249,264.65147 227.66849,262.09547 227.12849,259.89947 C 226.55249,257.81147 226.62449,254.75147 226.22949,253.92247 C 225.61749,253.31147 224.50049,253.85147 224.14149,255.39947 C 223.85349,257.05547 224.32149,260.94347 224.14149,263.17547 C 223.85349,265.47947 223.20449,267.09947 222.34049,268.86347 C 221.40449,270.73547 221.18949,272.93147 218.77749,273.93947 C 216.32949,275.05547 212.54849,275.12747 207.43749,275.12747 C 202.14549,275.12747 195.70149,273.76047 187.42049,273.93947 C 178.88949,274.29847 166.72049,276.20747 157.72049,276.60347 C 148.75649,277.07147 141.77249,276.27947 134.14049,276.02747 C 126.32849,275.81147 118.73249,274.47947 112.03649,274.80347 C 105.37649,275.27147 99.040491,277.89947 94.432491,278.11547 C 89.752491,278.26047 87.844491,276.63947 83.992491,276.02747 C 79.996491,275.63147 75.892491,275.37947 71.140491,275.41547 L 71.140491,275.41547 C 70.420491,271.77947 69.772491,268.93647 69.340491,266.73947 C 68.800491,264.61547 68.404491,263.82347 68.440491,262.27547 C 68.512491,260.72747 68.872491,259.03547 69.664491,257.19947 L 69.664491,257.19947 C 67.072491,258.60347 65.524491,260.15147 64.876491,261.98747 C 64.192491,263.89547 65.416491,265.98347 65.776491,268.25147 C 66.100491,270.55647 66.496491,273.03947 66.964491,275.70347 L 66.964491,275.70347 C 62.356491,276.35147 57.856491,276.74747 52.924491,276.89147 C 47.920491,277.14347 41.728491,277.14347 37.696491,276.89147 C 33.628491,276.78047 30.677491,276.49247 28.841491,276.02447 L 28.841491,276.02447 z " style="fill:url(#XMLID_5_);fill-rule:evenodd" id="path39"/><path d="M 317.38149,279.58847 C 317.27449,203.66447 317.27449,144.26547 317.09349,97.789474 C 316.87749,51.637474 316.77049,21.035474 316.48249,4.3324741 L 316.48249,4.3324741 C 319.14649,6.2404741 321.73849,7.5354741 324.54549,8.2214741 C 327.24549,8.9774741 329.98249,8.7974741 332.89849,8.5084741 C 335.74249,8.2934741 338.73049,7.6454741 341.86249,6.7094741 L 341.86249,6.7094741 L 337.36249,278.68847 L 337.36249,278.68847 C 334.08649,280.56047 331.35049,281.85647 329.00949,282.57647 C 326.66949,283.51347 325.15749,283.58447 323.35849,283.18847 C 321.44949,282.75747 319.36149,281.46047 317.38149,279.58847 L 317.38149,279.58847 z " style="fill:url(#XMLID_6_);fill-rule:evenodd" id="path54"/><path d="M 315.86949,4.6194741 C 318.60549,6.4204741 321.73749,7.5724741 325.12149,8.2214741 C 328.50549,8.8674741 333.29349,9.0124741 336.17349,8.5084741 C 338.90949,8.1124741 340.85449,7.2134741 341.86149,5.8094741 L 341.86149,5.8094741 C 340.42149,5.2684741 338.58549,4.7294741 336.49749,4.3324741 C 334.30149,3.9364741 331.85349,3.6844741 329.00949,3.4324741 L 329.00949,3.4324741 L 325.44649,1.0574741 L 325.44649,1.0574741 C 323.25049,0.62547412 321.30649,0.76847412 319.75849,1.3444741 C 318.06549,1.9574741 316.91349,3.0004741 315.86949,4.6194741 L 315.86949,4.6194741 z " style="fill:#412318;fill-rule:evenodd" id="path56"/><path d="M 11.561491,283.47747 C 13.829491,283.87347 16.241491,283.87347 19.193491,283.47747 C 22.073491,283.08147 25.205491,282.43347 28.733491,281.24547 L 28.733491,281.24547 L 29.057491,277.43047 L 29.057491,277.43047 C 32.477491,277.17847 35.573491,277.07047 38.921491,277.10647 C 42.125491,277.28647 44.933491,277.82647 48.461491,277.75347 C 51.881491,277.57347 56.669491,276.92647 59.909491,276.49347 C 63.185491,276.24147 65.741491,276.13447 67.865491,276.16947 L 67.865491,276.16947 C 68.117491,275.62947 68.117491,274.40547 67.865491,272.35447 C 67.541491,270.30247 66.137491,266.52247 66.281491,264.07447 C 66.461491,261.77047 67.217491,259.86247 68.837491,258.35047 L 68.837491,258.35047 C 68.117491,260.51047 67.793491,262.31047 67.865491,263.74947 C 67.901491,265.26247 68.657491,265.22647 69.161491,267.24147 C 69.629491,269.36547 69.917491,272.24547 70.421491,276.16947 L 70.421491,276.16947 C 73.517491,276.24147 76.973491,276.45747 80.933491,276.81747 C 84.821491,277.32147 88.241491,278.54547 93.965491,278.40147 C 99.581491,278.22147 109.30149,276.34947 114.95349,275.84547 C 120.64149,275.48547 124.70949,275.59347 127.69749,276.16847 L 127.69749,276.16847 C 131.11749,277.14147 135.22149,277.57247 140.40549,277.75247 C 145.62549,278.00447 152.86149,277.46547 158.22549,277.10547 C 163.30149,276.70947 165.42549,276.38547 171.25749,275.84547 C 177.05349,275.48547 187.06249,274.98147 193.21749,274.90847 C 199.33749,275.01647 203.11749,276.31247 207.86949,276.16847 C 212.58549,276.09747 216.90549,275.41247 221.22549,274.26147 L 221.22549,274.26147 C 221.51349,273.36147 221.83649,272.42547 222.48549,271.05747 C 223.06149,269.94147 224.32149,268.93347 224.71649,266.62847 C 225.00449,264.32447 224.10549,258.78047 224.39349,257.08847 C 224.64549,255.50447 225.04049,255.39747 225.97749,256.76547 L 225.97749,256.76547 C 225.40149,259.64547 225.50849,262.09347 226.30049,264.39747 C 227.05749,266.70147 229.36149,268.71747 230.44149,270.44547 C 231.34049,272.31747 230.11749,273.75847 232.02549,274.90947 C 233.89749,276.06147 235.87749,276.56547 241.56549,276.81747 C 247.10949,277.10547 258.95349,276.42147 265.43349,276.16947 C 271.76949,276.02547 273.96449,275.98947 279.65349,275.52247 C 285.23349,275.12647 292.86549,273.79347 299.09249,273.61447 C 305.21249,273.54247 311.04449,273.97447 316.58849,274.91047 L 316.58849,274.91047 L 316.26549,280.63547 L 316.26549,280.63547 C 319.25249,283.15547 322.49349,284.27147 326.12849,284.12647 C 329.69249,283.94647 333.61649,282.50647 337.90049,279.66247 L 337.90049,279.66247 L 342.32849,5.1274741 L 342.32849,5.1274741 C 342.11249,4.9454741 340.99649,4.6214741 338.83649,4.1544741 C 336.60549,3.6854741 333.47349,3.2894741 329.29649,2.5704741 L 329.29649,2.5704741 L 327.38849,0.013474121 L 327.38849,0.013474121 C 324.22049,-0.058525879 321.80949,0.15847412 319.75649,0.66147412 C 317.70449,1.2724741 316.26549,1.9934741 315.29249,3.2184741 L 315.29249,3.2184741 L 315.61649,11.462474 L 315.61649,11.462474 C 299.56049,11.173474 287.28449,10.849474 278.39249,10.200474 C 269.46349,9.6264741 268.24049,8.0424741 262.48049,7.9704741 C 256.54049,8.0774741 248.94449,9.8414741 243.72449,10.200474 C 238.53949,10.596474 235.94849,10.130474 231.62749,10.200474 C 227.16349,10.417474 222.48349,10.634474 217.29949,11.138474 L 217.29949,11.138474 C 217.22849,13.550474 217.15549,15.566474 216.68849,17.185474 C 216.18449,18.914474 215.68049,20.101474 214.78049,21.037474 L 214.78049,21.037474 C 215.39249,18.949474 215.50049,16.933474 215.10449,14.990474 C 214.60049,13.082474 213.77249,11.318474 212.22449,9.5544741 L 212.22449,9.5544741 C 206.24749,8.8334741 200.52449,8.5094741 195.05149,8.2944741 C 189.40049,8.1494741 184.32349,8.2574741 179.14049,8.6164741 L 179.14049,8.6164741 C 179.75149,10.452474 179.96749,12.145474 179.78749,13.692474 C 179.46349,15.313474 178.27549,16.104474 177.87949,18.157474 C 177.48349,20.352474 177.37549,22.981474 177.55649,26.436474 L 177.55649,26.436474 C 177.52049,25.717474 177.41149,24.852474 177.23249,23.557474 C 176.94449,22.297474 176.44049,20.713474 176.25949,19.092474 C 176.04349,17.653474 176.54749,15.889474 175.97249,14.340474 C 175.32449,12.756474 175.07249,11.172474 172.44449,9.8774741 C 169.63549,8.6524741 164.38049,8.0414741 159.73649,7.6454741 C 154.91249,7.3934741 147.60449,7.5734741 144.47249,8.6164741 C 141.34049,9.8414741 142.96049,14.630474 141.26849,14.665474 C 139.50449,14.737474 137.34449,9.9134741 133.96049,8.9404741 C 130.36049,8.0424741 125.10449,9.3014741 120.28049,9.2644741 C 115.45649,9.3364741 110.52449,9.3364741 105.34049,9.2644741 L 105.34049,9.2644741 C 104.36849,10.596474 103.61249,12.073474 102.78449,13.692474 C 101.95649,15.421474 101.48849,19.165474 100.55249,19.092474 C 99.364491,19.057474 97.024491,14.699474 96.736491,13.367474 C 96.556491,12.217474 99.724491,12.504474 99.292491,11.461474 C 98.716491,10.451474 97.924491,7.6804741 93.568491,7.0314741 C 89.068491,6.4924741 82.300491,6.9614741 72.868491,8.2934741 L 72.868491,8.2934741 C 72.004491,12.756474 70.888491,14.988474 69.376491,14.988474 C 67.756491,14.951474 66.172491,9.6254741 63.652491,8.2934741 C 61.096491,7.0684741 61.528491,8.0044741 54.112491,7.6454741 C 46.445491,7.3554741 34.817491,7.1414741 18.544491,6.7094741 L 18.544491,6.7094741 C 17.896491,4.7644741 16.276491,3.6484741 13.144491,3.2174741 C 10.084491,2.8564741 5.6924907,3.3244741 0.11249074,4.4774741 L 0.11249074,4.4774741 L 3.2814907,276.16847 L 3.2814907,276.16847 C 4.9014907,277.21247 6.5214907,277.82447 7.7454907,278.40047 C 8.9334907,279.01247 10.121491,279.19247 10.913491,279.33647 L 10.913491,279.33647 C 11.128491,280.70447 11.345491,282.07247 11.561491,283.47747 L 11.561491,283.47747 z M 4.5414907,275.52047 C 7.7814907,274.90847 10.841491,274.65647 14.117491,274.90847 C 17.285491,275.23247 21.389491,276.24047 23.657491,277.10447 C 25.889491,278.07647 27.113491,279.04847 27.473491,280.30847 L 27.473491,280.30847 C 27.257491,272.17247 26.825491,257.37547 25.889491,234.80447 C 24.809491,212.15947 23.621491,184.47647 22.037491,146.06447 C 20.525491,107.72447 18.833491,61.968474 16.961491,6.7094741 L 16.961491,6.7094741 C 14.873491,5.5574741 12.677491,4.8734741 9.9774907,4.8014741 C 7.2414907,4.7644741 4.3974907,5.3404741 1.0494907,6.3854741 L 1.0494907,6.3854741 C 2.2014907,96.096474 3.3534907,185.80947 4.5414907,275.52047 L 4.5414907,275.52047 z M 18.544491,7.9694741 C 33.232491,8.6534741 43.924491,9.0844741 51.160491,9.2644741 C 58.216491,9.4444741 58.468491,8.1494741 61.348491,9.2644741 C 64.192491,10.489474 66.424491,15.565474 68.332491,16.573474 C 70.132491,17.798474 71.284491,17.257474 72.472491,15.925474 C 73.624491,14.700474 74.380491,12.325474 75.028491,8.9414741 L 75.028491,8.9414741 C 79.528491,8.5464741 83.452491,8.3304741 86.800491,8.2954741 C 90.256491,8.2584741 93.388491,8.4754741 95.080491,8.9414741 C 96.448491,9.6274741 96.160491,11.029474 96.016491,11.785474 C 95.800491,12.613474 94.252491,12.650474 94.432491,13.693474 C 94.612491,14.990474 96.160491,17.185474 97.276491,18.482474 C 98.356491,19.777474 99.904491,21.505474 101.09249,21.037474 C 102.10049,20.642474 102.82049,17.689474 103.64849,15.926474 C 104.47649,14.197474 105.12449,12.399474 105.88049,10.526474 L 105.88049,10.526474 C 111.92849,10.778474 117.07649,10.887474 121.46849,10.850474 C 125.82449,10.815474 129.28049,10.059474 131.98049,10.526474 C 134.50049,11.174474 135.83249,13.190474 137.38049,14.342474 C 138.89249,15.567474 140.40449,17.403474 141.52049,17.510474 C 142.56449,17.655474 143.35649,16.215474 144.04049,14.990474 C 144.61649,13.838474 142.92449,11.605474 145.33649,10.525474 C 147.71249,9.5174741 154.22849,9.2304741 158.36849,9.2654741 C 162.47249,9.4824741 167.15349,10.490474 169.88849,11.462474 C 172.55249,12.470474 173.34549,13.046474 174.35349,15.276474 C 175.18149,17.653474 174.53349,22.944474 175.32549,25.465474 C 176.08149,28.057474 177.19749,29.713474 178.81749,30.576474 L 178.81749,30.576474 C 178.24149,27.228474 178.13249,24.492474 178.49349,21.972474 C 178.78149,19.595474 180.07749,17.904474 180.72549,15.923474 C 181.33649,13.980474 181.66149,12.071474 181.98549,10.198474 L 181.98549,10.198474 C 182.56149,10.163474 185.26049,10.163474 189.94149,10.198474 C 194.65749,10.270474 201.24549,10.380474 209.99349,10.522474 L 209.99349,10.522474 C 211.39749,12.178474 212.40549,14.086474 213.16149,16.247474 C 213.84549,18.479474 214.16949,20.819474 214.13349,23.556474 L 214.13349,23.556474 C 215.39449,22.367474 216.54549,20.927474 217.30149,19.091474 C 218.12949,17.255474 218.56249,15.275474 218.88549,12.755474 L 218.88549,12.755474 C 230.87349,12.827474 240.48649,12.610474 248.15449,12.107474 C 255.75049,11.640474 258.70249,9.8774741 264.38949,9.8774741 C 269.86249,10.092474 272.99349,11.820474 281.56249,12.432474 C 290.20249,13.008474 301.32649,13.225474 315.61849,13.080474 L 315.61849,13.080474 L 316.87849,273.00047 L 316.87849,273.00047 C 312.16249,271.95647 306.69049,271.52447 300.03049,271.70447 C 293.19049,272.10047 283.29049,273.64847 277.13449,274.26147 C 271.05049,274.83647 270.04249,274.87247 263.85149,274.90847 C 257.47949,275.16047 244.73549,275.30447 239.65949,274.90847 C 234.54749,274.44047 234.79949,273.39647 233.61149,272.35247 C 232.35149,271.52447 233.17849,271.30847 232.35149,269.47247 C 231.34249,267.63647 229.03849,264.28747 228.21049,261.51647 C 227.38249,258.88847 228.28249,255.21647 227.56349,253.56047 C 226.69949,252.08347 224.07149,251.29147 223.42249,252.30047 C 222.63049,253.41547 223.60349,257.30447 223.42249,259.93247 C 223.20649,262.66747 222.88249,266.12347 222.16249,268.21147 C 221.29849,270.37147 220.18349,271.81247 218.67049,272.67647 L 218.67049,272.67647 C 213.91849,273.72047 209.77849,274.11547 206.25049,274.26047 C 202.61449,274.33147 202.79449,273.53947 197.35849,273.28747 C 191.85049,273.14347 181.58949,273.25147 173.81449,273.61147 C 165.89349,274.15147 156.35349,275.88047 150.59349,276.16747 C 144.86949,276.56347 143.93349,276.02347 139.43349,275.52047 C 134.71749,274.94447 128.38149,273.68447 122.90949,273.28847 C 117.22149,273.10847 111.74949,273.75747 106.34949,274.26147 C 100.91349,274.98147 94.901491,276.67347 91.085491,276.81747 C 87.269491,276.88947 86.909491,275.55747 83.777491,274.90947 C 80.645491,274.40547 76.829491,273.97347 72.329491,273.61347 L 72.329491,273.61347 C 70.601491,270.12147 69.737491,267.06147 69.449491,263.74947 C 69.161491,260.54547 69.593491,257.52147 70.745491,254.53347 L 70.745491,254.53347 C 67.793491,257.73747 65.777491,260.18547 64.697491,262.16547 C 63.473491,264.10947 63.761491,264.47047 64.049491,266.30647 C 64.337491,268.32247 64.985491,270.77047 66.281491,273.93847 L 66.281491,273.93847 C 65.345491,274.55047 62.753491,274.83747 58.649491,275.19847 C 54.365491,275.55847 46.373491,275.91847 41.477491,275.84647 C 36.545491,275.88247 32.801491,275.66547 29.705491,275.19847 L 29.705491,275.19847 L 18.544491,7.9694741 L 18.544491,7.9694741 z M 12.821491,281.89347 L 11.561491,277.75247 L 7.0974907,276.49247 L 7.0974907,276.49247 C 10.481491,276.34847 13.613491,276.42047 16.637491,277.10447 C 19.661491,277.82447 22.289491,278.76047 24.917491,280.30847 L 24.917491,280.30847 C 22.181491,281.38847 19.985491,281.92847 17.933491,282.21647 C 15.881491,282.50447 14.225491,282.39647 12.821491,281.89347 L 12.821491,281.89347 z M 340.81749,5.7364741 C 339.01749,6.6724741 336.89349,7.2134741 334.15749,7.3554741 C 331.27749,7.5354741 327.53349,7.3204741 324.58149,6.7094741 C 321.62949,6.1334741 319.21749,5.4124741 316.94949,4.1524741 L 316.94949,4.1524741 C 318.13749,3.1074741 319.64949,2.5684741 321.08949,2.2444741 C 322.49349,1.9924741 324.22149,2.0994741 325.87749,2.5684741 L 325.87749,2.5684741 L 329.04549,4.8004741 L 329.04549,4.8004741 C 332.96949,5.0884741 336.89449,5.4124741 340.81749,5.7364741 L 340.81749,5.7364741 z M 316.94949,6.7094741 C 317.34549,32.844474 317.66949,67.873474 317.92149,113.59247 C 318.10249,159.56547 318.20949,213.74447 318.24549,279.33647 L 318.24549,279.33647 C 319.03749,281.38947 320.80149,282.39747 323.96949,282.21747 C 326.99349,282.03647 331.27849,280.81347 336.67749,278.40147 L 336.67749,278.40147 L 340.81849,8.2944741 L 340.81849,8.2944741 C 336.64249,9.2654741 332.93449,9.8414741 329.69449,9.8784741 C 326.20249,9.9134741 323.28649,9.2654741 321.09049,8.6164741 C 318.92949,8.0414741 317.59749,7.5354741 316.94949,6.7094741 L 316.94949,6.7094741 z " style="fill-rule:evenodd" id="path58"/>
<metadata><rdf:RDF><cc:Work><dc:format>image/svg+xml</dc:format><dc:type rdf:resource="http://purl.org/dc/dcmitype/StillImage"/><cc:license rdf:resource="http://creativecommons.org/licenses/publicdomain/"/><dc:publisher><cc:Agent rdf:about="http://openclipart.org/"><dc:title>Open Clip Art Library</dc:title></cc:Agent></dc:publisher><dc:title>Parchment Background or Border</dc:title><dc:date>2010-04-27T15:11:53</dc:date><dc:description/><dc:source>http://openclipart.org/detail/57367/parchment-background-or-border-by-gerald_g-57367</dc:source><dc:creator><cc:Agent><dc:title>Gerald_G</dc:title></cc:Agent></dc:creator><dc:subject><rdf:Bag><rdf:li>background</rdf:li><rdf:li>border</rdf:li><rdf:li>clip art</rdf:li><rdf:li>clipart</rdf:li><rdf:li>paper</rdf:li><rdf:li>parchment</rdf:li><rdf:li>scroll</rdf:li></rdf:Bag></dc:subject></cc:Work><cc:License rdf:about="http://creativecommons.org/licenses/publicdomain/"><cc:permits rdf:resource="http://creativecommons.org/ns#Reproduction"/><cc:permits rdf:resource="http://creativecommons.org/ns#Distribution"/><cc:permits rdf:resource="http://creativecommons.org/ns#DerivativeWorks"/></cc:License></rdf:RDF></metadata></svg>
